<svg xmlns="http://www.w3.org/2000/svg" xmlns:xlink="http://www.w3.org/1999/xlink" width="1030" height="1333" viewBox="0 0 1030 1333"><defs><linearGradient id="a" x1="0.666" y1="0.062" x2="0.671" y2="0.951" gradientUnits="objectBoundingBox"><stop offset="0" stop-color="#110027"/><stop offset="1" stop-color="#12223d"/></linearGradient><clipPath id="c"><rect width="1030" height="1333"/></clipPath></defs><g id="b" clip-path="url(#c)"><rect width="1030" height="1333"/><rect width="1047" height="1355" fill="url(#a)"/><g transform="translate(432 248)" fill="none" stroke="#fff" stroke-width="2"><rect width="182" height="81" stroke="none"/><rect x="1" y="1" width="180" height="79" fill="none"/></g><g transform="translate(449 423)" fill="#a9d4f0" stroke="#a9d4f0" stroke-width="2"><rect width="150" height="62" stroke="none"/><rect x="1" y="1" width="148" height="60" fill="none"/></g><g transform="translate(344 523)" fill="#a9d4f0" stroke="#a9d4f0" stroke-width="2"><rect width="150" height="62" stroke="none"/><rect x="1" y="1" width="148" height="60" fill="none"/></g><g transform="translate(551 523)" fill="#a9d4f0" stroke="#a9d4f0" stroke-width="2"><rect width="150" height="62" stroke="none"/><rect x="1" y="1" width="148" height="60" fill="none"/></g><g transform="translate(110 571)" fill="none" stroke="#fff" stroke-width="2"><rect width="150" height="55" stroke="none"/><rect x="1" y="1" width="148" height="53" fill="none"/></g><g transform="translate(211 1041.5)" fill="none" stroke="#fffc9b" stroke-width="2"><rect width="182" height="99" stroke="none"/><rect x="1" y="1" width="180" height="97" fill="none"/></g><g transform="translate(433 1041.5)" fill="none" stroke="#fffc9b" stroke-width="2"><rect width="182" height="99" stroke="none"/><rect x="1" y="1" width="180" height="97" fill="none"/></g><g transform="translate(653 1041.5)" fill="none" stroke="#fffc9b" stroke-width="2"><rect width="182" height="99" stroke="none"/><rect x="1" y="1" width="180" height="97" fill="none"/></g><text transform="translate(480 295)" fill="#fff" font-size="20" font-family="ConsolasNerdFontCompleteM-, Consolas NF"><tspan x="0" y="0">Frontend</tspan></text><text transform="translate(302 1090.5)" fill="#faf798" font-size="20" font-family="ConsolasNerdFontCompleteM-, Consolas NF"><tspan x="-54.98" y="0">Worker Bee</tspan><tspan x="-5.498" y="23">1</tspan></text><text transform="translate(524 461)" fill="#120c2f" font-size="20" font-family="ConsolasNerdFontCompleteM-, Consolas NF"><tspan x="-43.984" y="0">REST API</tspan></text><text transform="translate(628 561)" fill="#120c2f" font-size="20" font-family="ConsolasNerdFontCompleteM-, Consolas NF"><tspan x="-43.984" y="0">Pulse FD</tspan></text><text transform="translate(419 561)" fill="#110b2e" font-size="20" font-family="ConsolasNerdFontCompleteM-, Consolas NF"><tspan x="-49.482" y="0">Scheduler</tspan></text><text transform="translate(185 604)" fill="#fff" font-size="16" font-family="ConsolasNerdFontCompleteM-, Consolas NF"><tspan x="-30.789" y="0">Updater</tspan></text><text transform="translate(182 865)" fill="#fff" font-size="20" font-family="ConsolasNerdFontCompleteM-, Consolas NF"><tspan x="-65.977" y="0">Kafka Topics</tspan></text><text transform="translate(524 1090.5)" fill="#fffc9b" font-size="20" font-family="ConsolasNerdFontCompleteM-, Consolas NF"><tspan x="-54.98" y="0">Worker Bee</tspan><tspan x="-5.498" y="23">2</tspan></text><text transform="translate(744 1090.5)" fill="#fbf899" font-size="20" font-family="ConsolasNerdFontCompleteM-, Consolas NF"><tspan x="-54.98" y="0">Worker Bee</tspan><tspan x="-5.498" y="23">N</tspan></text><g transform="translate(97 381)" fill="none" stroke="#fff" stroke-width="2"><ellipse cx="90.5" cy="14" rx="90.5" ry="14" stroke="none"/><ellipse cx="90.5" cy="14" rx="89.5" ry="13" fill="none"/></g><g transform="translate(97 471)" fill="none" stroke="#fff" stroke-width="2"><ellipse cx="90.5" cy="14" rx="90.5" ry="14" stroke="none"/><ellipse cx="90.5" cy="14" rx="89.5" ry="13" fill="none"/></g><line y2="89.5" transform="translate(98.5 395.5)" fill="none" stroke="#fff" stroke-width="2"/><line y2="90.5" transform="translate(277.5 395.5)" fill="none" stroke="#fff" stroke-width="2"/><text transform="translate(188 436)" fill="#fff" font-size="16" font-family="ConsolasNerdFontCompleteM-, Consolas NF"><tspan x="-52.781" y="0">Cockroach DB</tspan><tspan x="-35.188" y="19">Clusters</tspan></text><line y2="220" transform="translate(302 805.5)" fill="none" stroke="#fffc9b" stroke-width="2"/><line y2="49" transform="translate(461 757)" fill="none" stroke="#fffc9b" stroke-width="2"/><line y2="53" transform="translate(587 756)" fill="none" stroke="#fffc9b" stroke-width="2"/><line y2="222" transform="translate(743 808)" fill="none" stroke="#fffc9b" stroke-width="2"/><line y2="274" transform="translate(524 756.5)" fill="none" stroke="#fffc9b" stroke-width="2"/><path d="M4,0,8,6H0Z" transform="translate(307 1031) rotate(180)" fill="#fffc9b"/><path d="M4,0,8,6H0Z" transform="translate(528 1034) rotate(180)" fill="#fffc9b"/><path d="M4,0,8,6H0Z" transform="translate(747 1034) rotate(180)" fill="#fffc9b"/><path d="M4,0,8,6H0Z" transform="translate(290 465) rotate(-90)" fill="#a9d4f0"/><path d="M4,0,8,6H0Z" transform="translate(710 563) rotate(-90)" fill="#fff"/><path d="M4,0,8,6H0Z" transform="translate(520 333)" fill="#fff"/><path d="M4,0,8,6H0Z" transform="translate(189 813.5) rotate(180)" fill="#fff"/><path d="M4,0,8,6H0Z" transform="translate(528 723) rotate(180)" fill="#a9d4f0"/><path d="M4,0,8,6H0Z" transform="translate(181 637)" fill="#fff"/><path d="M4,0,8,6H0Z" transform="translate(181 902)" fill="#fff"/><path d="M4,0,8,6H0Z" transform="translate(528 401) rotate(180)" fill="#fff"/><path d="M4,0,8,6H0Z" transform="translate(528 240) rotate(180)" fill="#fff"/><path d="M4,0,8,6H0Z" transform="translate(182 510)" fill="#fff"/><line x2="161" transform="translate(301 806)" fill="none" stroke="#fffc9b" stroke-width="2"/><line x2="158" transform="translate(586 808)" fill="none" stroke="#fffc9b" stroke-width="2"/><g transform="translate(149 972)" fill="none" stroke="#fff" stroke-width="2"><rect width="766" height="238" stroke="none"/><rect x="1" y="1" width="764" height="236" fill="none"/></g><text transform="translate(831 1000)" fill="#fff" font-size="12" font-family="ConsolasNerdFontCompleteM-, Consolas NF"><tspan x="-75.873" y="0">Pulse* Failure Detector</tspan><tspan x="-42.885" y="14">on each node </tspan></text><path d="M0,0V38" transform="translate(577 485)" fill="none" stroke="#a9d4f0" stroke-width="2"/><path d="M0,0V38" transform="translate(470 485)" fill="#a9d4f0" stroke="#a9d4f0" stroke-width="2"/><path d="M0,0V38" transform="translate(480 580)" fill="#a9d4f0" stroke="#a9d4f0" stroke-width="2"/><line y2="58" transform="translate(524 337.5)" fill="none" stroke="#fff" stroke-width="2"/><line y2="61" transform="translate(185 747)" fill="none" stroke="#fff" stroke-width="2"/><line x2="121" transform="translate(715 559)" fill="none" stroke="#fff" stroke-width="2"/><line x2="23" transform="translate(410 461)" fill="none" stroke="#a9d4f0" stroke-width="2"/><line y2="162" transform="translate(835 558.5)" fill="none" stroke="#fff" stroke-width="2"/><line y2="203" transform="translate(836 769)" fill="none" stroke="#fff" stroke-width="2"/><text transform="translate(799 1184)" fill="#fff" font-size="20" font-family="ConsolasNerdFontCompleteM-, Consolas NF"><tspan x="-60.479" y="0">N Bee swarm</tspan></text><text transform="translate(530 119)" fill="#fff" font-size="20" font-family="ConsolasNerdFontCompleteM-, Consolas NF"><tspan x="-109.961" y="0">Systems Architecture</tspan></text><text transform="translate(526 89)" fill="#fff" font-size="22" font-family="ConsolasNerdFontCompleteM-, Consolas NF"><tspan x="-42.335" y="0">Beehive</tspan></text><text transform="translate(527 188)" fill="#fff" font-size="15" font-family="ConsolasNerdFontCompleteM-, Consolas NF"><tspan x="-16.494" y="0">Jobs</tspan></text><line y2="37" transform="translate(524 198.5)" fill="none" stroke="#fff" stroke-width="2"/><line y2="72" transform="translate(185 643)" fill="none" stroke="#fff" stroke-width="2"/><line y2="66" transform="translate(185 907)" fill="none" stroke="#fff" stroke-width="2"/><line y1="55" transform="translate(186 516)" fill="none" stroke="#fff" stroke-width="2"/><text transform="translate(185 736)" fill="#fff" font-size="15" font-family="ConsolasNerdFontCompleteM-, Consolas NF"><tspan x="-70.1" y="0">Update Job Status</tspan></text><text transform="translate(836 749)" fill="#fff" font-size="15" font-family="ConsolasNerdFontCompleteM-, Consolas NF"><tspan x="-20.618" y="0">Pulse</tspan></text><text transform="translate(527 742)" fill="#fff" font-size="15" font-family="ConsolasNerdFontCompleteM-, Consolas NF"><tspan x="-61.853" y="0">Distribute Jobs</tspan></text><text transform="translate(373 465)" fill="#a9d4f0" font-size="15" font-family="ConsolasNerdFontCompleteM-, Consolas NF"><tspan x="-28.865" y="0">Persist</tspan></text><g transform="translate(84 826)" fill="none" stroke="#fff" stroke-width="2"><ellipse cx="8" cy="32" rx="8" ry="32" stroke="none"/><ellipse cx="8" cy="32" rx="7" ry="31" fill="none"/></g><g transform="translate(263 826)" fill="none" stroke="#fff" stroke-width="2"><ellipse cx="8" cy="32" rx="8" ry="32" stroke="none"/><ellipse cx="8" cy="32" rx="7" ry="31" fill="none"/></g><line x2="180" transform="translate(92 826.5)" fill="none" stroke="#fff" stroke-width="2"/><line x2="181" transform="translate(90.5 888.5)" fill="none" stroke="#fff" stroke-width="2"/><g transform="translate(314 376)" fill="none" stroke="#fff" stroke-width="2"><rect width="413" height="333" stroke="none"/><rect x="1" y="1" width="411" height="331" fill="none"/></g><text transform="translate(404 405)" fill="#fff" font-size="16" font-family="ConsolasNerdFontCompleteM-, Consolas NF"><tspan x="-70.375" y="0">Coordinator Node</tspan></text><text transform="translate(655 399)" fill="#fff" font-size="10" font-family="ConsolasNerdFontCompleteM-, Consolas NF"><tspan x="-60.479" y="0">Replication Factor = 3</tspan></text><g transform="translate(441 612)" fill="#a9d4f0" stroke="#a9d4f0" stroke-width="2"><rect width="160" height="67" stroke="none"/><rect x="1" y="1" width="158" height="65" fill="none"/></g><text transform="translate(523 655)" fill="#111031" font-size="20" font-family="ConsolasNerdFontCompleteM-, Consolas NF"><tspan x="-71.475" y="0">Load Balancer</tspan></text><path d="M0,0V49.73" transform="translate(524 668)" fill="#a9d4f0" stroke="#a9d4f0" stroke-width="2"/><line x2="38" transform="translate(296 461)" fill="none" stroke="#a9d4f0" stroke-width="2"/></g></svg>